<svg xmlns="http://www.w3.org/2000/svg" width="49.5" height="50" viewBox="0 0 49.5 50"><path fill="#FFF" d="M11.96 9.667c.813.603 3.947-.412 5.18-2.076 1.233-1.663 3.008-3.445 2.194-4.048-.814-.603-4.31.085-5.542 1.75-1.233 1.665-2.646 3.773-1.833 4.375zM6.203 13.266c.398.295 1.225-.144 1.83-.958.603-.814 1.472-1.688 1.073-1.982s-1.862.157-2.465.972-.835 1.673-.437 1.968z"/><path fill="#FF0" stroke="#000" stroke-width="3" stroke-miterlimit="10" d="M31.114 24.305c3.172.224 17.47.42 9.886-15.305C36.6-.123 5.5 3.75 5.5 3.75l-.625 43.125s38.16 6.88 38.375-11.375c.108-9.228-9.583-10.912-12.136-11.195zm-14.24-13.43S31.5 9 31.875 13.75s-15.124 6-15.124 6l.125-8.875zM15.5 41.625l-.5-11.5S32.125 29.75 32.125 36 15.5 41.625 15.5 41.625z"/></svg>