<svg xmlns="http://www.w3.org/2000/svg" width="49.5" height="50" viewBox="0 0 49.5 50"><path fill="#FFF" d="M11.96 9.667c.813.603 3.947-.412 5.18-2.076 1.233-1.662 3.008-3.444 2.194-4.047-.814-.603-4.31.085-5.542 1.75-1.233 1.665-2.646 3.773-1.833 4.375zm-5.757 3.6c.398.294 1.225-.145 1.83-.96.603-.813 1.472-1.687 1.073-1.98s-1.862.156-2.465.97-.834 1.674-.436 1.97z"/><path fill="#FF0" stroke="#000" stroke-width="3" stroke-miterlimit="10" d="M4.875 4L6.75 46.5s38 10.375 38-22.875C44.625-8.25 4.875 4 4.875 4zm12.5 28.125L16.75 13.25s14.375.125 15.25 8.25c1.125 11.25-14.625 10.625-14.625 10.625z"/></svg>