<svg xmlns="http://www.w3.org/2000/svg" width="49.5" height="50" viewBox="0 0 49.5 50"><path fill="#FFF" d="M11.96 9.667c.813.603 3.947-.412 5.18-2.076 1.233-1.663 3.008-3.445 2.194-4.048-.814-.603-4.31.085-5.542 1.75-1.233 1.665-2.646 3.773-1.833 4.375zM6.203 13.266c.398.295 1.225-.144 1.83-.958.603-.814 1.472-1.688 1.073-1.982s-1.862.157-2.465.972-.835 1.673-.437 1.968z"/><path fill="#FF0" stroke="#000" stroke-width="3" stroke-miterlimit="10" d="M39.75 18.375l5.125-8.125S41.158.274 21.75 2.5C-5.5 5.625.125 46.625 14.375 47.25S36 35.625 36 35.625l-6.75 11.5 11-.5 5.875-19.25-23.25-8.5-2.625 8.375L32 30.5s-5.75 8.125-15 7.625S12 15 23.625 12.375s16.125 6 16.125 6z"/></svg>