<svg xmlns="http://www.w3.org/2000/svg" width="49.5" height="50" viewBox="0 0 49.5 50"><path fill="#FFF" d="M11.96 9.667c.813.603 3.947-.412 5.18-2.076 1.233-1.663 3.008-3.445 2.194-4.048-.814-.603-4.31.085-5.542 1.75-1.233 1.665-2.646 3.773-1.833 4.375zM6.203 13.266c.398.295 1.225-.144 1.83-.958.603-.814 1.472-1.688 1.073-1.982s-1.862.157-2.465.972-.835 1.673-.437 1.968z"/><path fill="#FF0" stroke="#000" stroke-width="3" stroke-miterlimit="10" d="M3.875 4.875L6.375 14 22 11s15.417 13.5 12.917 19.666C21.583 48.583 13.083 27.75 13.083 27.75l-11 5.417s2.333 17.625 26.083 15 17.5-20.75 17.5-20.75L35.25 9.75l11.5-1.875-2.125-6.625-40.75 3.625z"/></svg>