<svg xmlns="http://www.w3.org/2000/svg" width="49.5" height="50" viewBox="0 0 49.5 50"><path fill="#FFF" d="M11.96 9.667c.813.603 3.947-.412 5.18-2.076 1.233-1.663 3.008-3.445 2.194-4.048-.814-.603-4.31.085-5.542 1.75-1.233 1.665-2.646 3.773-1.833 4.375zM6.203 13.266c.398.295 1.225-.144 1.83-.958.603-.814 1.472-1.688 1.073-1.982s-1.862.157-2.465.972-.835 1.673-.437 1.968z"/><path fill="#FF0" stroke="#000" stroke-width="3" stroke-miterlimit="10" d="M24.583 1.667c-12.15 0-22 10.52-22 23.5s9.85 23.5 22 23.5 22-10.52 22-23.5-9.85-23.5-22-23.5zm.5 35.524c-5.707 0-10.333-5.004-10.333-11.178 0-6.173 4.626-11.178 10.333-11.178s10.333 5.005 10.333 11.178c0 6.174-4.626 11.18-10.333 11.18z"/></svg>