<svg xmlns="http://www.w3.org/2000/svg" width="49.5" height="50" viewBox="0 0 49.5 50"><path fill="#FFF" d="M11.96 9.667c.813.603 3.947-.412 5.18-2.076 1.233-1.663 3.008-3.445 2.194-4.048-.814-.603-4.31.085-5.542 1.75-1.233 1.665-2.646 3.773-1.833 4.375zM6.203 13.266c.398.295 1.225-.144 1.83-.958.603-.814 1.472-1.688 1.073-1.982s-1.862.157-2.465.972-.835 1.673-.437 1.968z"/><path fill="#FF0" stroke="#000" stroke-width="3" stroke-miterlimit="10" d="M1.75 3.5l1.667 42.833 13.833-.667-1-18.333s30 9.833 29.333-15.833C46.25-3 1.75 3.5 1.75 3.5zm33.5 11c-1.5 8.167-19.5 2.833-19.5 2.833L15.583 8.5s21.667-4.333 19.667 6z"/></svg>