<svg xmlns="http://www.w3.org/2000/svg" width="49.5" height="50" viewBox="0 0 49.5 50"><path fill="#FFF" d="M11.96 9.667c.813.603 3.947-.412 5.18-2.076 1.233-1.663 3.008-3.445 2.194-4.048-.814-.603-4.31.085-5.542 1.75-1.233 1.665-2.646 3.773-1.833 4.375zM6.203 13.266c.398.295 1.225-.144 1.83-.958.603-.814 1.472-1.688 1.073-1.982s-1.862.157-2.465.972-.835 1.673-.437 1.968z"/><path fill="#FF0" stroke="#000" stroke-width="3" stroke-miterlimit="10" d="M46.417 23.833C46.417 11.775 36.417 2 24.083 2S1.75 11.775 1.75 23.833s10 21.833 22.333 21.833c3.354 0 6.533-.728 9.388-2.022l2.155 3.855 8-5.126-2.982-3.893c3.588-3.872 5.774-9.01 5.774-14.647zM24.083 37.5c-6.996 0-12.667-5.335-12.667-11.917s5.67-11.917 12.667-11.917c6.996 0 12.667 5.335 12.667 11.917 0 2.088-.575 4.05-1.578 5.756l-5.047-6.59-4.625 4.625 3.914 7.007a13.264 13.264 0 0 1-5.33 1.118z"/></svg>