<svg xmlns="http://www.w3.org/2000/svg" width="49.5" height="50" viewBox="0 0 49.5 50"><path fill="#FFF" d="M11.96 9.667c.813.603 3.947-.412 5.18-2.076s3.008-3.445 2.194-4.048-4.31.085-5.542 1.75-2.646 3.773-1.833 4.375zM6.203 13.266c.398.295 1.225-.144 1.83-.958s1.472-1.688 1.073-1.982-1.862.157-2.465.972-.835 1.673-.437 1.968z"/><ellipse fill="#FF0" stroke="#000" stroke-width="3" stroke-miterlimit="10" cx="25.25" cy="42.438" rx="7" ry="5.938"/><path fill="#FF0" stroke="#000" stroke-width="3" stroke-miterlimit="10" d="M19.083 32.75l10.417.418-1-7.168s11.916.084 15.084-8c3.166-8.083-3.168-12.917-8.418-14.25s-17.333-2.417-22.5-.083C9.237 5.217 5.5 12.333 5.5 12.333l9.083 2.5s1.33-4.98 3.917-5.917c3.917-1.417 8.2-1.783 12.416 3.25C39.5 22.416 18.833 22.5 18.833 22.5l.25 10.25z"/></svg>