<svg xmlns="http://www.w3.org/2000/svg" width="49.5" height="50" viewBox="0 0 49.5 50"><path fill="#FFF" d="M11.96 9.667c.813.603 3.947-.412 5.18-2.076 1.233-1.663 3.008-3.445 2.194-4.048-.814-.603-4.31.085-5.542 1.75-1.233 1.665-2.646 3.773-1.833 4.375zM6.203 13.266c.398.295 1.225-.144 1.83-.958.603-.814 1.472-1.688 1.073-1.982s-1.862.157-2.465.972-.835 1.673-.437 1.968z"/><path fill="#FF0" stroke="#000" stroke-width="3" stroke-miterlimit="10" d="M2.875 11.625l8.625-8L23.75 17.5 38.875 3.625l5.625 8.75-15.25 14.75 2.375 20.75L14.5 46.75l4.125-19.875z"/></svg>