<?xml version="1.0" encoding="utf-8"?>
<!-- Generator: Adobe Illustrator 16.0.4, SVG Export Plug-In . SVG Version: 6.00 Build 0)  -->
<!DOCTYPE svg PUBLIC "-//W3C//DTD SVG 1.1//EN" "http://www.w3.org/Graphics/SVG/1.1/DTD/svg11.dtd">
<svg version="1.1" id="Layer_1" xmlns="http://www.w3.org/2000/svg" xmlns:xlink="http://www.w3.org/1999/xlink" x="0px" y="0px"
	 width="576px" height="229px" viewBox="0 0 576 229" enable-background="new 0 0 576 229" xml:space="preserve">
<g>
	<polygon fill="none" stroke="#F2F2F2" stroke-width="3" stroke-miterlimit="10" points="228.333,14.667 340.999,15.333 359.999,38 
		283.333,128 207.666,35.333 	"/>
</g>
<g>
	<path fill="#FFFFFF" d="M130.278,144.086c0.08,4,4.12,6.76,12.12,8.28h0.12c4.599,0.84,8.16,2.12,10.68,3.84
		c3.08,2,4.62,4.649,4.62,7.95c0,3.3-1.551,6.07-4.65,8.31c-3.101,2.24-6.73,3.36-10.89,3.36c-5.28-0.041-10.44-2.061-15.48-6.061
		c-0.64-0.561-0.7-1.18-0.18-1.859c0.24-0.279,0.54-0.44,0.9-0.48s0.68,0.061,0.96,0.301c4.52,3.641,9.12,5.439,13.8,5.399
		c3.68,0,6.759-0.919,9.24-2.76c2.4-1.72,3.6-3.8,3.6-6.24c0-4.479-4.38-7.539-13.14-9.181h-0.12
		c-9.48-1.76-14.22-5.379-14.22-10.859c0-3.12,1.43-5.72,4.29-7.8c2.859-2.08,6.27-3.12,10.23-3.12c1.72,0,3.45,0.291,5.19,0.87
		c1.74,0.58,3.09,1.14,4.05,1.68s2.199,1.312,3.72,2.31c0.72,0.48,0.84,1.103,0.36,1.86c-0.441,0.72-1.041,0.841-1.8,0.36
		c-1.44-0.919-2.61-1.641-3.51-2.16s-2.1-1.029-3.6-1.529s-2.97-0.75-4.41-0.75c-3.36,0-6.22,0.84-8.58,2.521
		C131.377,139.967,130.278,141.887,130.278,144.086z"/>
	<path fill="#FFFFFF" d="M167.297,163.766v-16.02c0-0.398,0.14-0.74,0.42-1.02c0.279-0.279,0.62-0.42,1.02-0.42
		c0.399,0,0.74,0.141,1.02,0.42c0.279,0.278,0.42,0.621,0.42,1.02v16.02c0,2.521,0.879,4.66,2.64,6.42
		c1.76,1.763,3.879,2.662,6.36,2.7c2.52-0.04,4.67-0.938,6.45-2.7c1.779-1.76,2.67-3.898,2.67-6.42v-16.02
		c0-0.398,0.15-0.74,0.45-1.02c0.3-0.279,0.649-0.42,1.05-0.42c0.399,0,0.74,0.141,1.02,0.42c0.279,0.278,0.42,0.621,0.42,1.02
		v16.02c0,3.321-1.17,6.15-3.51,8.49s-5.17,3.51-8.49,3.51c-3.32,0-6.141-1.17-8.46-3.51
		C168.457,169.916,167.297,167.087,167.297,163.766z"/>
	<path fill="#FFFFFF" d="M204.677,186.626v-38.819c0-0.398,0.14-0.74,0.42-1.021c0.279-0.279,0.62-0.42,1.02-0.42
		c0.399,0,0.75,0.141,1.05,0.42c0.3,0.28,0.45,0.621,0.45,1.021v4.26c1.28-1.76,2.9-3.149,4.86-4.17
		c1.959-1.021,4.06-1.529,6.3-1.529c3.96,0,7.32,1.42,10.08,4.26c2.76,2.841,4.14,6.271,4.14,10.29s-1.38,7.47-4.14,10.351
		c-2.76,2.881-6.12,4.319-10.08,4.319c-2.241,0-4.341-0.521-6.3-1.562c-1.96-1.039-3.58-2.438-4.86-4.198v16.8
		c0,0.398-0.15,0.74-0.45,1.021c-0.3,0.277-0.65,0.42-1.05,0.42c-0.4,0-0.741-0.143-1.02-0.42
		C204.816,187.366,204.677,187.025,204.677,186.626z M207.617,160.466v0.479c0,3.24,1.1,6,3.3,8.281
		c2.2,2.278,4.82,3.438,7.86,3.479c3.12-0.04,5.779-1.2,7.98-3.479c2.199-2.281,3.3-5.041,3.3-8.281c0-3.239-1.101-5.989-3.3-8.25
		c-2.201-2.26-4.821-3.389-7.86-3.389c-3.04,0-5.65,1.078-7.83,3.238C208.886,154.706,207.737,157.346,207.617,160.466z"/>
	<path fill="#FFFFFF" d="M270.616,160.046v0.24c0,0.399-0.141,0.72-0.42,0.96c-0.28,0.24-0.621,0.359-1.02,0.359h-24.12
		c0.16,3.201,1.34,5.881,3.54,8.041c2.2,2.16,4.82,3.238,7.86,3.238c1.959,0,3.78-0.479,5.46-1.438s3.02-2.261,4.02-3.9
		c0.48-0.799,1.119-0.96,1.92-0.479c0.799,0.562,0.96,1.24,0.48,2.039c-1.281,2.041-2.97,3.66-5.07,4.86s-4.371,1.8-6.81,1.8
		c-3.96,0-7.33-1.43-10.11-4.289c-2.781-2.858-4.17-6.319-4.17-10.381c0-4.06,1.389-7.529,4.17-10.41
		c2.78-2.879,6.1-4.318,9.96-4.318c3.86,0,7.13,1.311,9.81,3.93C268.795,152.917,270.295,156.167,270.616,160.046z M263.656,151.945
		c-2.08-1.799-4.491-2.699-7.23-2.699c-2.74,0-5.15,0.891-7.23,2.67c-2.08,1.779-3.4,4.07-3.96,6.87h22.26
		C267.016,156.025,265.735,153.746,263.656,151.945z"/>
	<path fill="#FFFFFF" d="M280.815,174.326v-26.46c0-0.399,0.14-0.74,0.42-1.021c0.279-0.278,0.62-0.42,1.02-0.42
		c0.399,0,0.74,0.142,1.02,0.42c0.279,0.28,0.42,0.621,0.42,1.021v6.479c0.159-0.319,0.3-0.56,0.42-0.72c3.08-4.8,7-7.2,11.76-7.2
		c0.4,0,0.74,0.142,1.021,0.42c0.277,0.28,0.42,0.621,0.42,1.021c0,0.399-0.143,0.741-0.42,1.02c-0.28,0.28-0.621,0.421-1.021,0.421
		c-3.2,0-6.04,1.601-8.52,4.799c-1.44,1.92-2.621,4.201-3.54,6.84c-0.081,0.16-0.12,0.32-0.12,0.48v12.9c0,0.4-0.141,0.74-0.42,1.02
		c-0.28,0.28-0.621,0.42-1.02,0.42c-0.4,0-0.741-0.14-1.02-0.42C280.955,175.066,280.815,174.727,280.815,174.326z"/>
	<path fill="#FFFFFF" d="M312.346,169.557c-4.261-4.141-6.391-9.16-6.391-15.061c0-5.901,2.13-10.92,6.391-15.061
		c4.262-4.141,9.409-6.229,15.449-6.271c5.04,0,9.562,1.541,13.562,4.62c0.317,0.279,0.51,0.63,0.568,1.05
		c0.062,0.42-0.051,0.771-0.33,1.05c-0.238,0.36-0.568,0.562-0.988,0.602c-0.422,0.039-0.771-0.062-1.053-0.301
		c-3.479-2.721-7.398-4.08-11.76-4.08c-5.24,0-9.7,1.801-13.38,5.399c-3.681,3.601-5.521,7.938-5.521,13.021
		s1.841,9.399,5.521,12.961c3.68,3.561,7.97,5.34,12.87,5.34c4.897,0,8.949-1.359,12.148-4.08c0.359-0.24,0.75-0.33,1.172-0.27
		c0.42,0.06,0.729,0.27,0.93,0.629c0.279,0.279,0.397,0.642,0.358,1.08c-0.038,0.44-0.221,0.779-0.538,1.021
		c-3.962,3.041-8.48,4.56-13.562,4.56C321.755,175.766,316.605,173.695,312.346,169.557z"/>
	<path fill="#FFFFFF" d="M355.154,175.766h-0.299c-0.963,0-1.44-0.479-1.44-1.438v-39.12c0-0.398,0.14-0.74,0.42-1.021
		c0.279-0.277,0.62-0.42,1.021-0.42c0.396,0,0.75,0.143,1.049,0.42c0.301,0.28,0.451,0.621,0.451,1.021v15.479
		c2.438-2.879,5.459-4.318,9.06-4.318s6.59,1.09,8.97,3.27c2.379,2.182,3.57,4.95,3.57,8.311v16.381c0,0.4-0.15,0.74-0.45,1.02
		c-0.3,0.28-0.648,0.42-1.05,0.42s-0.74-0.14-1.021-0.42c-0.279-0.279-0.42-0.619-0.42-1.02v-16.381c0-2.521-0.898-4.59-2.699-6.209
		c-1.801-1.62-4.012-2.43-6.631-2.43s-4.829,0.81-6.631,2.43c-1.8,1.619-2.698,3.688-2.698,6.209v16.561
		c0,0.081-0.08,0.27-0.239,0.57c-0.16,0.3-0.441,0.51-0.84,0.63C355.234,175.747,355.194,175.766,355.154,175.766z"/>
	<path fill="#FFFFFF" d="M412.395,146.786c0.279-0.279,0.619-0.42,1.021-0.42c0.399,0,0.74,0.141,1.021,0.42
		c0.279,0.28,0.422,0.621,0.422,1.021v26.521c0,0.399-0.143,0.739-0.422,1.021c-0.278,0.279-0.619,0.42-1.021,0.42
		s-0.74-0.141-1.021-0.42c-0.278-0.279-0.42-0.619-0.42-1.021v-4.382c-1.279,1.802-2.891,3.222-4.83,4.262
		c-1.938,1.041-4.011,1.561-6.21,1.561c-3.84,0-7.119-1.439-9.84-4.32c-2.721-2.879-4.08-6.338-4.08-10.379s1.359-7.5,4.08-10.381
		c2.721-2.879,6-4.319,9.84-4.319c2.199,0,4.271,0.521,6.21,1.56c1.939,1.041,3.551,2.44,4.83,4.2v-4.319
		C411.975,147.407,412.114,147.066,412.395,146.786z M389.895,161.066c0,3.278,1.091,6.068,3.271,8.369
		c2.18,2.301,4.779,3.449,7.8,3.449c3.021,0,5.61-1.148,7.771-3.449c2.158-2.301,3.238-5.091,3.238-8.369
		c0-3.279-1.079-6.08-3.238-8.4c-2.16-2.318-4.75-3.48-7.771-3.48c-3.021,0-5.62,1.162-7.8,3.48
		C390.983,154.986,389.895,157.787,389.895,161.066z"/>
	<path fill="#FFFFFF" d="M436.154,146.366c0.357,0,0.688,0.149,0.987,0.45c0.303,0.3,0.45,0.629,0.45,0.99
		c0,0.358-0.147,0.688-0.45,0.988c-0.3,0.3-0.63,0.45-0.987,0.45h-3.78v21.42c0,0.642,0.249,1.161,0.75,1.562
		c0.5,0.398,0.949,0.6,1.35,0.6c0.399,0,0.762,0.16,1.08,0.48c0.32,0.319,0.48,0.658,0.48,1.02c0,0.359-0.16,0.689-0.48,0.99
		c-0.318,0.3-0.66,0.449-1.02,0.449c-1.48,0-2.711-0.479-3.69-1.439c-0.979-0.96-1.47-2.18-1.47-3.66v-21.42h-3.66
		c-0.641,0-1.041-0.12-1.2-0.36c-0.16-0.239-0.238-0.56-0.238-0.96c0-0.398,0.021-0.68,0.061-0.84c0.12-0.48,0.579-0.72,1.38-0.72
		h3.66v-10.921c0-0.359,0.149-0.689,0.45-0.989c0.3-0.3,0.639-0.45,1.02-0.45c0.38,0,0.729,0.15,1.05,0.45
		c0.321,0.3,0.48,0.63,0.48,0.989v10.921H436.154L436.154,146.366z"/>
</g>
<g>
	<g>
		<path fill="#F2F2F2" d="M231.105,43.174c6.417,8.032,24.433,13.573,52.267,16.625h0.396c14.755,1.686,25.019,4.258,30.764,7.709
			c6.007,4.017,6.073,9.337,1.307,15.962c-4.453,6.626-10.417,12.188-17.218,16.685c-5.672,4.499-10.568,6.747-15.483,6.747
			c-6.253-0.081-14.087-4.652-24.717-15.152c-1.922-1.577-5.708-6-4.248-8.75c0.273-0.455,2.787-0.168,3.511-0.25
			c0.728-0.079-1.931,0.481-1.033,1.25c8.738,8.5,20.092,17.562,26.499,17.481c5.048,0,9.734-1.846,14.611-5.542
			c5.395-3.452,9.686-7.629,12.43-12.529c5.405-8.994-3.085-15.138-28.073-18.432h-0.362c-30.558-3.533-51.949-10.801-62.017-21.804
			c-6.126-6.265-4.192-11.484,7.191-15.661c12.999-4.175,31.676-6.265,54.759-6.265c10.021,0,19.978,0.584,29.629,1.747
			c9.357,1.166,16.283,2.289,20.898,3.373c4.469,1.085,10.48,2.44,15.165,5.382c2.541,1.75-4.796,6.045-8.263,7.57
			c-3.122,1.445,1.304-2.892-1.574-3.856c-5.709-1.847-10.639-3.292-14.615-4.336c-4.11-1.043-9.935-2.067-17.534-3.072
			c-7.816-1.003-15.723-1.506-23.555-1.506c-18.277,0-33.037,1.687-43.455,5.06C229.739,34.903,227.578,38.758,231.105,43.174z"/>
	</g>
</g>
</svg>
