<svg xmlns="http://www.w3.org/2000/svg" width="576" height="229" viewBox="0 0 576 229"><path fill="none" stroke="#F2F2F2" stroke-width="3" stroke-miterlimit="10" d="M228.333 14.667L341 15.333 360 38l-76.667 90-75.667-92.667z"/><g fill="#FFF"><path d="M130.278 144.086c.08 4 4.12 6.76 12.12 8.28h.12c4.6.84 8.16 2.12 10.68 3.84 3.08 2 4.62 4.65 4.62 7.95s-1.55 6.07-4.65 8.31c-3.1 2.24-6.73 3.36-10.89 3.36-5.28-.04-10.44-2.06-15.48-6.06-.64-.562-.7-1.18-.18-1.86.24-.28.54-.44.9-.48s.68.06.96.3c4.52 3.642 9.12 5.44 13.8 5.4 3.68 0 6.76-.92 9.24-2.76 2.4-1.72 3.6-3.8 3.6-6.24 0-4.48-4.38-7.54-13.14-9.18h-.12c-9.48-1.76-14.22-5.38-14.22-10.86 0-3.12 1.43-5.72 4.29-7.8 2.86-2.08 6.27-3.12 10.23-3.12 1.72 0 3.45.29 5.19.87 1.74.58 3.09 1.14 4.05 1.68s2.2 1.312 3.72 2.31c.72.48.84 1.103.36 1.86-.44.72-1.04.84-1.8.36-1.44-.92-2.61-1.64-3.51-2.16s-2.1-1.03-3.6-1.53-2.97-.75-4.41-.75c-3.36 0-6.22.84-8.58 2.522-2.2 1.64-3.3 3.56-3.3 5.758zM167.297 163.766v-16.02c0-.398.14-.74.42-1.02.28-.28.62-.42 1.02-.42s.74.14 1.02.42c.28.278.42.62.42 1.02v16.02c0 2.52.88 4.66 2.64 6.42 1.76 1.763 3.88 2.662 6.36 2.7 2.52-.04 4.67-.938 6.45-2.7 1.78-1.76 2.67-3.898 2.67-6.42v-16.02c0-.398.15-.74.45-1.02.3-.28.65-.42 1.05-.42s.74.14 1.02.42c.28.278.42.62.42 1.02v16.02c0 3.32-1.17 6.15-3.51 8.49s-5.17 3.51-8.49 3.51c-3.32 0-6.14-1.17-8.46-3.51-2.32-2.34-3.48-5.17-3.48-8.49zM204.677 186.626v-38.82c0-.397.14-.74.42-1.02.28-.28.62-.42 1.02-.42s.75.14 1.05.42c.3.28.45.62.45 1.02v4.26c1.28-1.76 2.9-3.148 4.86-4.17 1.96-1.02 4.06-1.528 6.3-1.528 3.96 0 7.32 1.42 10.08 4.26s4.14 6.27 4.14 10.29-1.38 7.47-4.14 10.35c-2.76 2.882-6.12 4.32-10.08 4.32-2.24 0-4.34-.52-6.3-1.562a14.07 14.07 0 0 1-4.86-4.198v16.8c0 .398-.15.74-.45 1.02-.3.278-.65.42-1.05.42a1.4 1.4 0 0 1-1.02-.42 1.398 1.398 0 0 1-.42-1.022zm2.94-26.16v.48c0 3.24 1.1 6 3.3 8.28 2.2 2.278 4.82 3.438 7.86 3.48 3.12-.04 5.78-1.2 7.98-3.48 2.2-2.28 3.3-5.04 3.3-8.28 0-3.24-1.1-5.99-3.3-8.25-2.2-2.26-4.82-3.39-7.86-3.39s-5.65 1.078-7.83 3.238c-2.18 2.162-3.33 4.802-3.45 7.922zM270.616 160.046v.24c0 .4-.14.72-.42.96-.28.24-.62.36-1.02.36h-24.12c.16 3.2 1.34 5.88 3.54 8.04 2.2 2.16 4.82 3.238 7.86 3.238 1.96 0 3.78-.48 5.46-1.438s3.02-2.26 4.02-3.9c.48-.8 1.12-.96 1.92-.48.8.563.96 1.24.48 2.04-1.28 2.04-2.97 3.66-5.07 4.86s-4.37 1.8-6.81 1.8c-3.96 0-7.33-1.43-10.11-4.29-2.78-2.857-4.17-6.318-4.17-10.38 0-4.06 1.39-7.53 4.17-10.41 2.78-2.88 6.1-4.318 9.96-4.318 3.86 0 7.13 1.31 9.81 3.93 2.68 2.62 4.18 5.87 4.5 9.748zm-6.96-8.1c-2.08-1.8-4.49-2.7-7.23-2.7s-5.15.89-7.23 2.67c-2.08 1.78-3.4 4.07-3.96 6.87h22.26c-.48-2.76-1.76-5.04-3.84-6.84zM280.815 174.326v-26.46c0-.4.14-.74.42-1.02.28-.28.62-.42 1.02-.42s.74.14 1.02.42c.28.28.42.62.42 1.02v6.48c.16-.32.3-.56.42-.72 3.08-4.8 7-7.2 11.76-7.2.4 0 .74.14 1.02.42.278.28.42.62.42 1.02s-.142.74-.42 1.02c-.28.28-.62.42-1.02.42-3.2 0-6.04 1.602-8.52 4.8-1.44 1.92-2.62 4.2-3.54 6.84-.08.16-.12.32-.12.48v12.9c0 .4-.14.74-.42 1.02-.28.28-.62.42-1.02.42s-.74-.14-1.02-.42c-.28-.28-.42-.62-.42-1.02zM312.346 169.557c-4.26-4.14-6.39-9.16-6.39-15.06 0-5.902 2.13-10.92 6.39-15.062 4.262-4.14 9.41-6.23 15.45-6.27 5.04 0 9.56 1.54 13.56 4.62.318.278.51.63.57 1.05.06.42-.052.77-.33 1.05a1.28 1.28 0 0 1-.99.6c-.42.04-.77-.06-1.052-.3-3.48-2.72-7.398-4.08-11.76-4.08-5.24 0-9.7 1.8-13.38 5.4-3.68 3.6-5.52 7.937-5.52 13.02s1.84 9.4 5.52 12.96c3.68 3.562 7.97 5.34 12.87 5.34 4.897 0 8.95-1.358 12.148-4.08.36-.24.75-.33 1.172-.27.42.06.73.27.93.63.28.28.397.642.358 1.08-.038.44-.22.78-.538 1.02-3.962 3.042-8.48 4.56-13.562 4.56-6.037 0-11.187-2.07-15.446-6.208zM355.154 175.766h-.3c-.962 0-1.44-.48-1.44-1.438v-39.12c0-.398.14-.74.42-1.02a1.4 1.4 0 0 1 1.022-.42c.396 0 .75.142 1.05.42.3.28.45.62.45 1.02v15.48c2.438-2.88 5.46-4.32 9.06-4.32s6.59 1.09 8.97 3.27c2.38 2.183 3.57 4.95 3.57 8.312v16.38c0 .4-.15.74-.45 1.02-.3.28-.648.42-1.05.42s-.74-.14-1.02-.42a1.39 1.39 0 0 1-.42-1.02v-16.38c0-2.52-.9-4.59-2.7-6.21-1.8-1.62-4.012-2.43-6.63-2.43s-4.83.81-6.632 2.43c-1.8 1.62-2.698 3.69-2.698 6.21v16.56c0 .082-.08.27-.24.57-.16.3-.44.51-.84.63-.042.037-.082.056-.122.056zM412.395 146.786c.28-.28.62-.42 1.02-.42s.74.14 1.022.42c.28.28.422.62.422 1.02v26.522c0 .4-.144.74-.423 1.02-.278.28-.62.42-1.02.42s-.74-.14-1.022-.42c-.278-.278-.42-.618-.42-1.02v-4.382a13.91 13.91 0 0 1-4.83 4.262 12.936 12.936 0 0 1-6.21 1.56c-3.84 0-7.12-1.438-9.84-4.32-2.72-2.878-4.08-6.337-4.08-10.378s1.36-7.5 4.08-10.38c2.72-2.88 6-4.32 9.84-4.32 2.2 0 4.27.52 6.21 1.56a14.18 14.18 0 0 1 4.83 4.2v-4.32c0-.403.14-.744.42-1.024zm-22.5 14.28c0 3.278 1.09 6.068 3.27 8.37 2.18 2.3 4.78 3.448 7.8 3.448 3.022 0 5.61-1.148 7.772-3.45 2.158-2.3 3.238-5.09 3.238-8.368 0-3.28-1.08-6.08-3.238-8.4-2.16-2.318-4.75-3.48-7.77-3.48-3.022 0-5.62 1.162-7.8 3.48-2.184 2.32-3.272 5.12-3.272 8.4zM436.154 146.366c.357 0 .688.15.987.45.304.3.45.63.45.99 0 .358-.146.688-.45.988-.3.3-.63.45-.986.45h-3.78v21.42c0 .642.25 1.16.75 1.562.5.398.95.6 1.35.6.4 0 .762.16 1.08.48.32.32.48.658.48 1.02 0 .36-.16.69-.48.99-.318.3-.66.45-1.02.45-1.48 0-2.71-.48-3.69-1.44s-1.47-2.18-1.47-3.66v-21.42h-3.66c-.64 0-1.04-.12-1.2-.36-.16-.24-.238-.56-.238-.96 0-.398.02-.68.06-.84.12-.48.58-.72 1.38-.72h3.66v-10.92c0-.36.15-.69.45-.99.3-.3.64-.45 1.02-.45s.73.15 1.05.45c.322.3.48.63.48.99v10.92h3.778z"/></g><path fill="#F2F2F2" d="M231.105 43.174c6.417 8.032 24.433 13.573 52.267 16.625h.396c14.755 1.685 25.02 4.257 30.764 7.708 6.007 4.017 6.073 9.337 1.307 15.962-4.454 6.626-10.418 12.188-17.22 16.685-5.67 4.5-10.567 6.747-15.482 6.747-6.253-.08-14.087-4.652-24.717-15.152-1.92-1.577-5.707-6-4.247-8.75.273-.455 2.787-.168 3.51-.25.73-.08-1.93.48-1.032 1.25 8.74 8.5 20.093 17.562 26.5 17.48 5.048 0 9.734-1.845 14.61-5.54 5.396-3.453 9.687-7.63 12.43-12.53 5.406-8.994-3.084-15.138-28.072-18.432h-.362c-30.558-3.533-51.95-10.8-62.017-21.804-6.127-6.265-4.193-11.484 7.19-15.66 13-4.176 31.676-6.266 54.76-6.266 10.02 0 19.977.584 29.628 1.747 9.357 1.166 16.283 2.29 20.898 3.373 4.47 1.085 10.48 2.44 15.165 5.382 2.542 1.75-4.795 6.045-8.262 7.57-3.122 1.445 1.304-2.892-1.574-3.856-5.71-1.847-10.64-3.292-14.615-4.336-4.11-1.043-9.936-2.067-17.535-3.072a185.523 185.523 0 0 0-23.555-1.506c-18.277 0-33.037 1.687-43.455 5.06-8.646 3.293-10.807 7.148-7.28 11.564z"/></svg>