<svg xmlns="http://www.w3.org/2000/svg" width="49.5" height="50" viewBox="0 0 49.5 50"><path fill="#FFF" d="M11.96 9.667c.813.603 3.947-.412 5.18-2.076 1.233-1.663 3.008-3.445 2.194-4.048-.814-.603-4.31.085-5.542 1.75-1.233 1.665-2.646 3.773-1.833 4.375zM6.203 13.266c.398.295 1.225-.144 1.83-.958.603-.814 1.472-1.688 1.073-1.982s-1.862.157-2.465.972-.835 1.673-.437 1.968z"/><linearGradient id="a" gradientUnits="userSpaceOnUse" x1=".44" y1="25.176" x2="49.39" y2="25.176"><stop offset="0" stop-color="#702215"/><stop offset=".232" stop-color="#ff0045"/></linearGradient><path fill="url(#a)" d="M24.75 12.333S19.965-4.052 5.92 1.5c-10.333 4.083-3 24.583-2.333 26.25 8.5 17.833 21.5 22.25 21.5 22.25s11.25-5.75 19.833-21.667c3.665-8.833 8.417-20.75-1.167-25.667-11.853-6.082-19 9.667-19 9.667z"/><linearGradient id="b" gradientUnits="userSpaceOnUse" x1="2.299" y1="26.231" x2="46.832" y2="26.231"><stop offset="0" stop-color="#F69"/><stop offset="1" stop-color="#ff7bac" stop-opacity="0"/></linearGradient><path fill="url(#b)" d="M24.75 13.25S16.013-2.982 5.875 4.375c-6.82 4.948-2.945 18.52 3.75 28.375C16.797 43.305 25.083 50 25.083 50S35.28 38.927 41.708 27.333c6.177-11.14 7.58-19.543-.333-22.458-9.5-3.5-16.625 8.375-16.625 8.375z"/></svg>