<svg xmlns="http://www.w3.org/2000/svg" width="49.5" height="50" viewBox="0 0 49.5 50"><circle fill="#FCDD27" stroke="#050505" stroke-miterlimit="10" cx="24.888" cy="24.797" r="23.893"/><ellipse fill="#FFF" stroke="#000" stroke-miterlimit="10" cx="34.963" cy="20.482" rx="3.76" ry="5.697"/><ellipse fill="#020202" stroke="#000" stroke-width=".25" stroke-miterlimit="10" cx="35.166" cy="20.827" rx="1.414" ry="1.885"/><path fill="none" stroke="#000" stroke-miterlimit="10" d="M14.5 36.875s1.188 5.375 10.75 5.375 10.625-5.875 10.625-5.875"/><path fill="#F9B428" d="M16.062 30.438s-3.75 0-5.625 1.375-1.125.75-2.187 1.687-.125 4.375-.125 4.375 0-1.562 3.438-4.125 4.5-3.312 4.5-3.312z"/><path fill="#FCDD27" stroke="#050505" stroke-miterlimit="10" d="M30.812 26.375s1.104-.542 4.5-1.125c5.36-.92 7.938 2.062 7.938 2.062"/><path fill="#F9B428" d="M28 22.25s2.062-10.375 6.625-10.5S42 21.812 42 21.812 39.875 7.5 34.125 7.5 28 22.25 28 22.25zM13.875 40.688s5.188 3.562 10.938 3.625S37 38.875 37 38.875s-6.188 7.938-12.312 7.875-10.813-6.062-10.813-6.062zM34.875 31.062S38.5 29 40 29.75 41.375 34 41.375 34s-.5-1.312-2.438-2.312-4.062-.626-4.062-.626z"/><path fill="#FFF" d="M11.96 9.667c.813.603 3.947-.412 5.18-2.076 1.233-1.663 3.008-3.445 2.194-4.048-.814-.603-4.31.085-5.542 1.75-1.233 1.665-2.646 3.773-1.833 4.375zM6.203 13.266c.398.295 1.225-.144 1.83-.958.603-.814 1.472-1.688 1.073-1.982s-1.862.157-2.465.972-.835 1.673-.437 1.968z"/><ellipse fill="#FFF" stroke="#000" stroke-miterlimit="10" cx="15.287" cy="20.482" rx="3.76" ry="5.697"/><ellipse fill="#020202" stroke="#000" stroke-width=".25" stroke-miterlimit="10" cx="15.084" cy="20.827" rx="1.414" ry="1.885"/><path fill="#FCDD27" stroke="#050505" stroke-miterlimit="10" d="M19.438 26.375s-1.104-.542-4.5-1.125C9.578 24.33 7 27.312 7 27.312"/><path fill="#F9B428" d="M22.25 22.25s-2.062-10.375-6.625-10.5S8.25 21.812 8.25 21.812 10.375 7.5 16.125 7.5s6.125 14.75 6.125 14.75z"/><path fill="#020202" stroke="#000" stroke-miterlimit="10" d="M25.25 38.125c-1.375.25-2.75 3.375-2.75 3.375s.125 3 2.312 2.812 2.062-2.438 2.062-2.438-.25-4-1.624-3.75z"/><path fill="none" stroke="#000" stroke-miterlimit="10" d="M19.875 38.875s1-4.875 2.25-5 3 1.25 3 1.25 2-1.75 3.25-1S30.75 38.5 30.75 38.5M19.25 42.875s.75 3.875 5.438 3.875 5.812-3.5 5.812-3.5"/><path fill="#FF7DD1" stroke="#050505" stroke-miterlimit="10" d="M35.537 35.874s.047-2.294-2.488-2.917c-2.536-.624-2.778 1.265-1.983 4.345.795 3.08 2.24 4.078 2.24 4.078s1.236-.867 3.627-2.214c2.39-1.348 3.735-2.15 1.962-4.067-1.772-1.918-3.36.774-3.36.774zM40.752 43.503s.03-1.452-1.575-1.847c-1.604-.395-1.758.8-1.255 2.75.503 1.95 1.417 2.582 1.417 2.582s.782-.55 2.296-1.402S44 44.224 42.878 43.01c-1.122-1.21-2.126.493-2.126.493z"/></svg>