<?xml version="1.0" encoding="utf-8"?>
<!-- Generator: Adobe Illustrator 16.0.4, SVG Export Plug-In . SVG Version: 6.00 Build 0)  -->
<!DOCTYPE svg PUBLIC "-//W3C//DTD SVG 1.1//EN" "http://www.w3.org/Graphics/SVG/1.1/DTD/svg11.dtd">
<svg version="1.1" id="Layer_1" xmlns="http://www.w3.org/2000/svg" xmlns:xlink="http://www.w3.org/1999/xlink" x="0px" y="0px"
	 width="49.5px" height="50px" viewBox="0 0 49.5 50" enable-background="new 0 0 49.5 50" xml:space="preserve">
<circle fill="#FCDD27" stroke="#050505" stroke-miterlimit="10" cx="24.888" cy="24.797" r="23.893"/>
<ellipse fill="#FFFFFF" stroke="#000000" stroke-miterlimit="10" cx="34.963" cy="20.482" rx="3.76" ry="5.697"/>
<ellipse fill="#020202" stroke="#000000" stroke-width="0.25" stroke-miterlimit="10" cx="35.166" cy="20.827" rx="1.414" ry="1.885"/>
<path fill="none" stroke="#000000" stroke-miterlimit="10" d="M11.438,32.812c0,0,4.25,9.438,13.812,9.438
	s13.938-11.188,13.938-11.188"/>
<path fill="#F9B428" d="M16.062,30.438c0,0-3.75,0-5.625,1.375S9.312,32.562,8.25,33.5s-0.125,4.375-0.125,4.375
	s0-1.562,3.438-4.125S16.062,30.438,16.062,30.438z"/>
<path fill="#FCDD27" stroke="#050505" stroke-miterlimit="10" d="M30.812,26.375c0,0,1.104-0.542,4.5-1.125
	c5.359-0.921,7.938,2.062,7.938,2.062"/>
<path fill="#F9B428" d="M23.25,21.438"/>
<path fill="#F9B428" d="M28,22.25c0,0,2.062-10.375,6.625-10.5S42,21.812,42,21.812S39.875,7.5,34.125,7.5S28,22.25,28,22.25z"/>
<path fill="#F9B428" d="M13.875,40.688c0,0,5.188,3.562,10.938,3.625S37,38.875,37,38.875s-6.188,7.938-12.312,7.875
	S13.875,40.688,13.875,40.688z"/>
<path fill="#F9B428" d="M34.875,31.062c0,0,3.625-2.062,5.125-1.312S41.375,34,41.375,34s-0.5-1.312-2.438-2.312
	S34.875,31.062,34.875,31.062z"/>
<path fill="#FFFFFF" d="M11.959,9.667c0.814,0.603,3.948-0.412,5.181-2.076c1.233-1.664,3.008-3.446,2.194-4.049
	c-0.814-0.603-4.309,0.085-5.542,1.75C12.559,6.957,11.146,9.065,11.959,9.667z"/>
<path fill="#FFFFFF" d="M6.203,13.266c0.398,0.295,1.225-0.144,1.829-0.958c0.604-0.814,1.473-1.688,1.074-1.982
	s-1.862,0.157-2.465,0.972S5.805,12.971,6.203,13.266z"/>
<ellipse fill="#FFFFFF" stroke="#000000" stroke-miterlimit="10" cx="15.287" cy="20.482" rx="3.76" ry="5.697"/>
<ellipse fill="#020202" stroke="#000000" stroke-width="0.25" stroke-miterlimit="10" cx="15.084" cy="20.827" rx="1.414" ry="1.885"/>
<path fill="#FCDD27" stroke="#050505" stroke-miterlimit="10" d="M19.438,26.375c0,0-1.104-0.542-4.5-1.125
	C9.578,24.329,7,27.312,7,27.312"/>
<path fill="#F9B428" d="M22.25,22.25c0,0-2.062-10.375-6.625-10.5S8.25,21.812,8.25,21.812S10.375,7.5,16.125,7.5
	S22.25,22.25,22.25,22.25z"/>
</svg>
